<?xml version="1.0" standalone="no"?>
<!DOCTYPE svg PUBLIC "-//W3C//DTD SVG 20010904//EN"
 "http://www.w3.org/TR/2001/REC-SVG-20010904/DTD/svg10.dtd">
<svg version="1.0" xmlns="http://www.w3.org/2000/svg"
 width="512.000000pt" height="512.000000pt" viewBox="0 0 512.000000 512.000000"
 preserveAspectRatio="xMidYMid meet">

<g transform="translate(0.000000,512.000000) scale(0.100000,-0.100000)"
fill="#000000" stroke="none">
<path d="M2350 5009 c-1119 -105 -2011 -922 -2210 -2022 -110 -610 26 -1261
371 -1781 531 -800 1462 -1215 2411 -1076 753 111 1412 567 1787 1238 187 334
300 746 304 1112 2 131 1 136 -25 182 -22 36 -41 53 -83 74 -71 34 -137 31
-198 -12 -66 -46 -83 -90 -91 -241 -21 -392 -130 -735 -334 -1048 -109 -168
-281 -357 -442 -486 -270 -217 -622 -369 -984 -426 -151 -23 -441 -23 -592 0
-591 92 -1108 423 -1426 912 -398 611 -444 1386 -122 2034 340 684 991 1106
1766 1147 152 8 196 25 242 91 43 61 46 127 12 198 -40 80 -91 108 -205 111
-47 1 -129 -2 -181 -7z"/>
<path d="M3229 4660 c-164 -87 -131 -327 51 -369 26 -6 188 -11 385 -11 l340
0 -432 -432 c-385 -386 -433 -438 -443 -477 -24 -91 19 -184 104 -226 l50 -25
616 0 c641 0 654 1 711 43 32 23 65 80 74 128 15 79 -39 174 -120 210 -36 17
-73 19 -400 19 l-359 0 431 433 c417 419 431 434 442 483 22 92 -19 183 -99
224 -38 19 -59 20 -677 20 -609 -1 -640 -2 -674 -20z"/>
<path d="M2470 4078 c-26 -14 -57 -41 -75 -66 l-30 -44 -3 -756 c-2 -657 -1
-762 13 -797 11 -31 127 -152 497 -522 434 -433 487 -483 527 -493 81 -21 173
13 218 81 35 53 43 140 18 190 -9 19 -210 228 -446 464 l-429 430 -2 702 -3
701 -30 44 c-37 53 -102 88 -165 88 -28 0 -63 -9 -90 -22z"/>
</g>
</svg>
