<?xml version="1.0" standalone="no"?>
<!DOCTYPE svg PUBLIC "-//W3C//DTD SVG 20010904//EN"
 "http://www.w3.org/TR/2001/REC-SVG-20010904/DTD/svg10.dtd">
<svg version="1.0" xmlns="http://www.w3.org/2000/svg"
 width="200.000000pt" height="200.000000pt" viewBox="0 0 200.000000 200.000000"
 preserveAspectRatio="xMidYMid meet">
<metadata>
Created by potrace 1.14, written by Peter Selinger 2001-2017
</metadata>
<g transform="translate(0.000000,200.000000) scale(0.100000,-0.100000)"
fill="#000000" stroke="none">
<path d="M0 1755 l0 -250 252 -252 253 -253 245 0 245 0 -500 -500 -500 -500
255 0 255 0 248 248 247 247 0 250 0 250 473 -470 c259 -259 484 -481 500
-495 l27 -23 0 244 0 244 -246 252 -245 253 -252 2 -252 3 498 498 498 497
-253 0 -253 0 -248 -248 -247 -247 0 -250 0 -250 -500 500 -500 500 0 -250z"/>
</g>
</svg>
